<?xml version="1.0" ?><!-- Uploaded to: SVGRepo, www.svgrepo.com, Transformed by: SVGRepo Tools -->
<svg width="800px" height="800px" viewBox="0 0 48 48" id="Layer_1" version="1.1" xml:space="preserve" xmlns="http://www.w3.org/2000/svg" xmlns:xlink="http://www.w3.org/1999/xlink"><style type="text/css">
	.st0{fill:#010101;}
</style><path class="st0" d="M12.288,23.452h1.803c-0.298,0.203-0.582,0.431-0.842,0.691c-1.091,1.091-1.691,2.546-1.691,4.097  c0,3.191,2.597,5.788,5.788,5.788h2.378v1.587c0,0.226,0.152,0.424,0.371,0.483c0.218,0.06,0.449-0.037,0.563-0.233l1.894-3.281  l1.894,3.29c0.091,0.158,0.258,0.251,0.434,0.251c0.043,0,0.086-0.005,0.129-0.017c0.219-0.058,0.371-0.256,0.371-0.483v-1.597H41  c0.276,0,0.5-0.224,0.5-0.5v-1.609c0-0.104-0.039-0.195-0.093-0.274c-0.006-0.009-0.004-0.021-0.01-0.03  c-0.745-0.973-1.139-2.14-1.139-3.375s0.394-2.402,1.139-3.375c0.007-0.009,0.004-0.021,0.01-0.03  c0.054-0.08,0.093-0.171,0.093-0.274v-1.609c0-0.276-0.224-0.5-0.5-0.5h-4.558v-1.109c0-0.01-0.005-0.019-0.006-0.029  c-0.001-0.021-0.008-0.038-0.012-0.058c-0.012-0.067-0.036-0.126-0.071-0.181c-0.007-0.011-0.006-0.025-0.014-0.036  c-0.745-0.973-1.139-2.14-1.139-3.375s0.394-2.402,1.139-3.375c0.008-0.011,0.007-0.025,0.014-0.036  c0.036-0.055,0.059-0.114,0.071-0.181c0.004-0.02,0.011-0.038,0.012-0.058c0.001-0.01,0.006-0.019,0.006-0.029v-1.609  c0-0.276-0.224-0.5-0.5-0.5H12.288c-1.551,0-3.006,0.601-4.097,1.691S6.5,16.112,6.5,17.664C6.5,20.855,9.097,23.452,12.288,23.452z   M25.378,28.74h13.918c0.071,0.95,0.337,1.856,0.795,2.679H25.378V28.74z M39.297,27.74H24.878h-4.654h-3.568  c-0.276,0-0.5,0.224-0.5,0.5s0.224,0.5,0.5,0.5h3.068v2.679h-2.204c-1.753,0-3.179-1.426-3.179-3.179  c0-0.851,0.33-1.649,0.927-2.247c0.609-0.601,1.409-0.932,2.251-0.932h22.571C39.633,25.884,39.368,26.789,39.297,27.74z   M24.378,33.751l-1.395-2.415c-0.09-0.154-0.254-0.249-0.432-0.249c0,0,0,0,0,0c-0.178,0-0.342,0.094-0.432,0.248l-1.396,2.414  v-0.221v-1.609V28.74h3.654v3.179v1.609V33.751z M25.378,33.028v-0.609H40.5v0.609H25.378z M40.5,24.061H17.521  c-1.107,0-2.156,0.433-2.956,1.223c-0.789,0.789-1.223,1.838-1.223,2.956c0,2.304,1.875,4.179,4.179,4.179h2.204v0.609h-2.378  c-2.64,0-4.788-2.148-4.788-4.788c0-1.284,0.497-2.487,1.398-3.39c0.902-0.902,2.105-1.398,3.39-1.398h18.596H40.5V24.061z   M34.231,17.164H11.598c-0.276,0-0.5,0.224-0.5,0.5s0.224,0.5,0.5,0.5h22.633c0.071,0.949,0.329,1.857,0.786,2.679H12.463  c-1.753,0-3.179-1.426-3.179-3.179c0-0.851,0.33-1.649,0.927-2.247c0.609-0.601,1.409-0.932,2.251-0.932h22.554  C34.56,15.306,34.302,16.215,34.231,17.164z M8.898,14.274c0.902-0.902,2.105-1.398,3.39-1.398h23.154v0.609H12.463  c-1.107,0-2.156,0.433-2.956,1.223c-0.789,0.789-1.223,1.838-1.223,2.956c0,2.304,1.875,4.179,4.179,4.179h22.979v0.609H17.346  h-5.058c-2.64,0-4.788-2.148-4.788-4.788C7.5,16.379,7.997,15.176,8.898,14.274z"/></svg>