<svg xmlns="http://www.w3.org/2000/svg" version="1.1" xmlns:xlink="http://www.w3.org/1999/xlink" xmlns:svgjs="http://svgjs.com/svgjs" width="1440" height="560" preserveAspectRatio="none" viewBox="0 0 1440 560"><g mask="url(&quot;#SvgjsMask1000&quot;)" fill="none"><rect width="1440" height="560" x="0" y="0" fill="#0e2a47"></rect><path d="M0 23.33C38.29 -4.35 77.29 47.48 140 38.77C161.29 35.81 147.05 5.8 168 0C217.05 -13.58 224 0 280 0C350 0 350 0 420 0C490 0 490 0 560 0C630 0 630 0 700 0C770 0 770 0 840 0C863.34 0 864.03 -4.64 886.67 0C934.03 9.72 935.56 28.72 980 28.72C1002.96 28.72 997.77 4.86 1021.48 0C1067.77 -9.5 1070.74 0 1120 0C1190 0 1190 0 1260 0C1330 0 1330 0 1400 0C1470 0 1500.59 -30.59 1540 0C1570.59 23.74 1555.64 62.77 1540 108.66C1531.78 132.77 1492.27 119.79 1492.27 140C1492.27 169.33 1527.25 170.35 1540 207.74C1551.12 240.35 1540 243.87 1540 280C1540 338.94 1571.95 373.31 1540 397.89C1501.95 427.16 1465.53 379.49 1400 387.69C1377.16 390.55 1363.25 403.14 1363.25 420C1363.25 438.14 1380.91 439.58 1400 457.69C1454.7 509.58 1510.83 530.51 1510.83 560C1510.83 581.67 1455.41 560 1400 560C1330 560 1330 560 1260 560C1190 560 1190 560 1120 560C1078.82 560 1076.13 569.62 1037.65 560C1006.13 552.12 1008.71 525 980 525C951.89 525 954.81 552.3 924 560C884.81 569.8 882 560 840 560C798 560 756 573.92 756 560C756 542.64 803.79 534.31 840 497.45C872.55 464.31 881.56 463.69 893.53 420C911.35 354.97 916.83 340.97 899.57 280C890.06 246.41 868.29 230.88 840 230.88C815.17 230.88 816.37 255.16 793.33 280C746.37 330.63 746.78 331.02 700 381.82C682.32 401.02 668.7 395.81 664.41 420C652.9 484.9 697.82 520.54 668.39 560C645.61 590.54 614.19 560 560 560C490 560 490 560 420 560C350 560 350 560 280 560C210 560 210 560 140 560C70 560 67.41 562.59 0 560C-2.59 559.9 -0.91 557.14 0 554.62C24.45 487.14 50.72 481.93 50.72 420C50.72 388.89 11.4 399.99 0 368.53C-13.96 329.99 0 324.26 0 280C0 210 0 210 0 140C0 81.66 -31.71 46.26 0 23.33" stroke="rgba(51, 121, 194, 0.58)" stroke-width="2"></path><path d="M700 105C687.22 105 672.78 124.25 672.78 140C672.78 152.18 686.91 160.85 700 160.85C711.65 160.85 722.27 151.83 722.27 140C722.27 123.91 711.96 105 700 105" stroke="rgba(51, 121, 194, 0.58)" stroke-width="2"></path><path d="M140 232.68C111.23 232.68 89.85 256.07 89.85 280C89.85 304.43 111.01 329.41 140 329.41C185.5 329.41 238.82 304.28 238.82 280C238.82 255.92 185.72 232.68 140 232.68" stroke="rgba(51, 121, 194, 0.58)" stroke-width="2"></path><path d="M56.76 140C56.76 117.08 105.77 124.54 140 92.62C180.83 54.54 164.21 28.24 206.89 0C234.21 -18.07 243.44 0 280 0C350 0 350 0 420 0C490 0 490 0 560 0C618.8 0 674.45 -28.3 677.6 0C682.23 41.7 569.68 78.23 575.56 140C580.88 195.89 641.47 183.93 700 235.32C721.19 253.93 735 258.34 735 280C735 299.77 717.62 299.2 700 318.18C652.66 369.2 627.02 359.75 605.08 420C582.99 480.66 628.39 508.93 611.94 560C605.85 578.93 585.97 560 560 560C490 560 490 560 420 560C370.59 560 347.98 588.51 321.18 560C282.18 518.51 289.65 490.26 288.4 420C287.16 350.26 318.92 347.65 316.21 280C314.72 242.65 311.37 227.2 280 210C223.27 178.89 207.3 204.48 140 183.38C95.68 169.48 56.76 162.46 56.76 140" stroke="rgba(51, 121, 194, 0.58)" stroke-width="2"></path><path d="M801.82 140C801.82 117.14 812.57 92.41 840 89.09C901.66 81.64 910.41 102.09 980 118.46C1018.59 127.54 1053.7 112.37 1056.36 140C1061.48 193.14 978.49 230.68 995.56 280C1010.31 322.64 1055.84 313.05 1120 323.92C1188.06 335.45 1197.5 340.33 1260 324.8C1285.86 318.37 1296.72 302.68 1296.72 280C1296.72 256.45 1282.32 252.2 1260 232.34C1203.68 182.2 1170.53 200.44 1139.44 140C1110.78 84.27 1107.97 37.76 1140.49 0C1168.25 -32.24 1200.24 0 1260 0C1330 0 1330 0 1400 0C1470 0 1490.11 -20.11 1540 0C1560.11 8.1 1557.2 37.49 1540 56.42C1493.57 107.49 1418.17 87.89 1412.73 140C1406.5 199.68 1520.25 221.16 1516.67 280C1513.88 325.78 1455.07 310.13 1400 349.23C1356.49 380.13 1319.5 383.07 1319.5 420C1319.5 459.73 1358.86 462.2 1400 502.56C1430.22 532.2 1462.22 543.44 1462.22 560C1462.22 572.16 1431.11 560 1400 560C1330 560 1330 560 1260 560C1248.34 560 1248.23 561.44 1236.67 560C1178.23 552.69 1174.22 563.1 1120 542.5C1045.89 514.35 1045.23 508.16 980 462.5C957.73 446.91 945.83 445.37 945 420C942.85 354.12 997.74 336.55 974.04 280C945.24 211.29 907.4 224.26 840 169.47C821.29 154.26 801.82 157.33 801.82 140" stroke="rgba(51, 121, 194, 0.58)" stroke-width="2"></path><path d="M0 203.64C9.91 203.64 37.61 245 37.61 280C37.61 301.71 11.05 317.06 0 317.06C-7.76 317.06 0 298.53 0 280C0 241.82 -8.89 203.64 0 203.64" stroke="rgba(51, 121, 194, 0.58)" stroke-width="2"></path><path d="M101.45 420C114.01 396.06 115.94 380.88 140 380.88C195.67 380.88 230.7 377.41 260.91 420C294.22 466.97 298.75 523.28 267.04 560C238.29 593.28 203.52 560 140 560C93.01 560 53.44 586.9 46.03 560C34.16 516.9 67.02 485.62 101.45 420" stroke="rgba(51, 121, 194, 0.58)" stroke-width="2"></path><path d="M280 96.25C244.36 86.09 245.78 36.05 245.78 0C245.78 -12.08 262.89 0 280 0C350 0 350 0 420 0C471.34 0 522.67 -11.77 522.67 0C522.67 13.07 472.9 28.7 420 49.68C351.57 76.82 331.47 110.93 280 96.25" stroke="rgba(51, 121, 194, 0.58)" stroke-width="2"></path><path d="M1236.67 140C1222.55 74.73 1216.47 56.31 1225.85 0C1228.13 -13.69 1242.93 0 1260 0C1330 0 1330 0 1400 0C1470 0 1472.03 -2.03 1540 0C1542.03 0.06 1541.84 3.26 1540 4.18C1471.84 38.26 1467.75 33.03 1400 70C1343.31 100.94 1345.92 105.6 1291.11 140C1275.92 149.53 1274.96 157.87 1260 157.87C1247.74 157.87 1239.63 153.66 1236.67 140" stroke="rgba(51, 121, 194, 0.58)" stroke-width="2"></path><path d="M376.55 280C387.63 242.9 392.02 213.68 420 213.68C460.41 213.68 488.68 233.77 513.33 280C543.68 336.93 553.34 362.98 530 420C506.68 476.98 468.68 508 420 508C382.88 508 367.79 469.26 358.4 420C346.06 355.26 356.83 346.06 376.55 280" stroke="rgba(51, 121, 194, 0.58)" stroke-width="2"></path><path d="M1354.1 280C1354.1 250.37 1376.07 211.71 1400 211.71C1424.94 211.71 1451.85 250.92 1451.85 280C1451.85 300.45 1425.5 310.77 1400 310.77C1376.63 310.77 1354.1 299.9 1354.1 280" stroke="rgba(51, 121, 194, 0.58)" stroke-width="2"></path><path d="M1042.22 420C1042.22 404.65 1079.63 397.22 1120 392.55C1188.52 384.62 1195.76 383.48 1260 394.8C1273.63 397.2 1275.75 406.74 1275.75 420C1275.75 438.43 1277.74 454.19 1260 458.18C1199.86 471.69 1187.67 466.86 1120 455C1078.78 447.77 1042.22 435.87 1042.22 420" stroke="rgba(51, 121, 194, 0.58)" stroke-width="2"></path><path d="M93.97 560C93.97 519.42 113.7 448 140 448C167.83 448 202.22 522.31 202.22 560C202.22 578.31 171.11 560 140 560C116.99 560 93.97 575.42 93.97 560" stroke="rgba(51, 121, 194, 0.58)" stroke-width="2"></path><path d="M1368.39 560C1368.39 556.74 1385.36 547.44 1400 547.44C1407.97 547.44 1413.61 556.38 1413.61 560C1413.61 562.66 1406.8 560 1400 560C1384.2 560 1368.39 563.02 1368.39 560" stroke="rgba(51, 121, 194, 0.58)" stroke-width="2"></path></g><defs><mask id="SvgjsMask1000"><rect width="1440" height="560" fill="#ffffff"></rect></mask></defs></svg>