<?xml version="1.0" encoding="iso-8859-1"?>
<!-- Uploaded to: SVG Repo, www.svgrepo.com, Generator: SVG Repo Mixer Tools -->
<svg version="1.1" id="Layer_1" xmlns="http://www.w3.org/2000/svg" xmlns:xlink="http://www.w3.org/1999/xlink" 
	 viewBox="0 0 491.52 491.52" xml:space="preserve">
<path style="fill:#64798A;" d="M484.381,82.229l-75.09-75.09C404.72,2.568,398.522,0,392.058,0H24.372C10.912,0,0,10.911,0,24.372
	v442.775c0,13.462,10.912,24.373,24.372,24.373h442.775c13.46,0,24.372-10.911,24.372-24.373V99.462
	C491.52,92.997,488.952,86.799,484.381,82.229z"/>
<path style="fill:#FFFFFF;" d="M406.232,220.728H85.289c-11.651,0-21.096,9.445-21.096,21.096v168.495
	c0,11.651,9.445,21.096,21.096,21.096h320.943c11.651,0,21.096-9.445,21.096-21.096V241.824
	C427.327,230.173,417.882,220.728,406.232,220.728z"/>
<g>
	<rect x="101.12" y="260.915" style="fill:#EBF0F3;" width="289.28" height="17.874"/>
	<rect x="101.12" y="317.133" style="fill:#EBF0F3;" width="289.28" height="17.874"/>
	<rect x="101.12" y="373.355" style="fill:#EBF0F3;" width="289.28" height="17.874"/>
	<path style="fill:#EBF0F3;" d="M114.721,0v110.368c0,10.347,8.388,18.735,18.736,18.735h224.608
		c10.347,0,18.735-8.388,18.735-18.735V0H114.721z"/>
</g>
<rect x="310.118" y="21.417" style="fill:#3A556A;" width="29.839" height="83.681"/>
</svg>